<?xml version="1.0" encoding="UTF-8" standalone="no"?>
<svg
   width="512"
   height="512"
   version="1.1"
   viewBox="0 0 135.47 135.47"
   xml:space="preserve"
   id="svg1"
   sodipodi:docname="maat.svg"
   inkscape:version="1.3.2 (091e20ef0f, 2023-11-25)"
   xmlns:inkscape="http://www.inkscape.org/namespaces/inkscape"
   xmlns:sodipodi="http://sodipodi.sourceforge.net/DTD/sodipodi-0.dtd"
   xmlns="http://www.w3.org/2000/svg"
   xmlns:svg="http://www.w3.org/2000/svg"><defs
   id="defs1" /><sodipodi:namedview
   id="namedview1"
   pagecolor="#ffffff"
   bordercolor="#000000"
   borderopacity="0.25"
   inkscape:showpageshadow="2"
   inkscape:pageopacity="0.0"
   inkscape:pagecheckerboard="0"
   inkscape:deskcolor="#d1d1d1"
   inkscape:zoom="0.37304688"
   inkscape:cx="292.18848"
   inkscape:cy="331.05759"
   inkscape:window-width="761"
   inkscape:window-height="1049"
   inkscape:window-x="0"
   inkscape:window-y="0"
   inkscape:window-maximized="0"
   inkscape:current-layer="svg1" />
  <path
   style="fill:#cc241d;fill-opacity:1;stroke:#cc241d;stroke-width:2.20721;stroke-dasharray:none;stroke-opacity:1"
   d="m 56.536012,73.384644 c 1.106494,-29.750607 1.914908,-35.784189 5.424367,-40.484728 5.549698,-7.433203 16.294392,-7.772417 17.318704,-0.54677 0.388053,2.737367 -0.472975,6.397058 -1.913408,8.132672 -1.875315,2.25961 -2.195307,8.377081 -1.126946,21.544056 l 1.492022,18.38839 -6.43932,2.24477 c -6.643642,2.31598 -11.070955,10.55673 -11.070955,20.606796 0,2.79167 -1.12157,5.07575 -2.49237,5.07575 -1.834605,0 -2.149205,-9.226436 -1.192094,-34.960936 z m 15.403317,-14.24073 c -1.210152,-14.96398 -0.864978,-18.53666 2.108252,-21.822061 2.967142,-3.278663 3.070491,-4.330942 0.624713,-6.360764 -2.196313,-1.822783 -3.932946,-1.699244 -6.931082,0.493037 -4.105299,3.001861 -7.168646,20.68938 -7.409873,42.783868 l -0.110927,10.15571 6.58298,-3.67815 6.582958,-3.67815 z"
   id="path1-2" />
</svg>
